<svg width="816" height="820" viewBox="0 0 816 820" fill="none" xmlns="http://www.w3.org/2000/svg">
<g clip-path="url(#clip0_421_345)">
<rect width="816" height="820" fill="black"/>
<path d="M646.68 2.45996H524.28V296.184H646.68V2.45996Z" fill="#FF8603"/>
<path d="M622.2 49.61V91.02C622.2 97.826 616.733 103.32 609.96 103.32C603.187 103.32 597.72 97.826 597.72 91.02V35.26C597.72 28.454 592.253 22.96 585.48 22.96C578.707 22.96 573.24 28.454 573.24 35.26V91.02C573.24 97.826 567.773 103.32 561 103.32C554.227 103.32 548.76 97.826 548.76 91.02V72.16C548.76 65.354 543.293 59.86 536.52 59.86C529.747 59.86 524.28 65.354 524.28 72.16V103.32V112.34V286.344H646.68V112.34V103.32V49.61C646.68 42.804 641.213 37.31 634.44 37.31C627.749 37.31 622.2 42.804 622.2 49.61Z" fill="#ED5F18"/>
<path d="M622.2 59.45V100.86C622.2 107.666 616.733 113.16 609.96 113.16C603.187 113.16 597.72 107.666 597.72 100.86V45.1C597.72 38.294 592.253 32.8 585.48 32.8C578.707 32.8 573.24 38.294 573.24 45.1V100.86C573.24 107.666 567.773 113.16 561 113.16C554.227 113.16 548.76 107.666 548.76 100.86V82C548.76 75.194 543.293 69.7 536.52 69.7C529.747 69.7 524.28 75.194 524.28 82V113.16V122.18V296.184H646.68V122.18V113.16V59.45C646.68 52.644 641.213 47.15 634.44 47.15C627.749 47.15 622.2 52.644 622.2 59.45Z" fill="#EF2531"/>
<path d="M622.2 138.006V196.308C622.2 203.114 616.733 208.608 609.96 208.608C603.187 208.608 597.72 203.114 597.72 196.308V166.132C597.72 159.326 592.253 153.832 585.48 153.832C578.707 153.832 573.24 159.326 573.24 166.132V196.308C573.24 203.114 567.773 208.608 561 208.608C554.227 208.608 548.76 203.114 548.76 196.308V154.898C548.76 148.092 543.293 142.598 536.52 142.598C529.747 142.598 524.28 148.092 524.28 154.898V208.608V217.628V289.378H646.68V217.628V208.608V138.006C646.68 131.2 641.213 125.706 634.44 125.706C627.749 125.706 622.2 131.2 622.2 138.006Z" fill="#CC253D"/>
<path d="M622.2 59.45V100.86C622.2 107.666 616.733 113.16 609.96 113.16C603.187 113.16 597.72 107.666 597.72 100.86V45.1C597.72 38.294 592.253 32.8 585.48 32.8C578.707 32.8 573.24 38.294 573.24 45.1V100.86C573.24 107.666 567.773 113.16 561 113.16C554.227 113.16 548.76 107.666 548.76 100.86V82C548.76 75.194 543.293 69.7 536.52 69.7C529.747 69.7 524.28 75.194 524.28 82V113.16V122.18V296.184H646.68V122.18V113.16V59.45C646.68 52.644 641.213 47.15 634.44 47.15C627.749 47.15 622.2 52.644 622.2 59.45Z" stroke="#3F2522" stroke-width="6" stroke-miterlimit="10" stroke-linecap="round" stroke-linejoin="round"/>
<path d="M622.2 148.666V206.968C622.2 213.774 616.733 219.268 609.96 219.268C603.187 219.268 597.72 213.774 597.72 206.968V176.792C597.72 169.986 592.253 164.492 585.48 164.492C578.707 164.492 573.24 169.986 573.24 176.792V206.968C573.24 213.774 567.773 219.268 561 219.268C554.227 219.268 548.76 213.774 548.76 206.968V165.558C548.76 158.752 543.293 153.258 536.52 153.258C529.747 153.258 524.28 158.752 524.28 165.558V219.268V228.288V300.038H646.68V228.288V219.268V148.666C646.68 141.86 641.213 136.366 634.44 136.366C627.749 136.366 622.2 141.86 622.2 148.666Z" fill="#38BEB3"/>
<path opacity="0.14" d="M646.68 266.5H524.28V296.184H646.68V266.5Z" fill="#026060"/>
<path d="M622.2 148.666V206.968C622.2 213.774 616.733 219.268 609.96 219.268C603.187 219.268 597.72 213.774 597.72 206.968V176.792C597.72 169.986 592.253 164.492 585.48 164.492C578.707 164.492 573.24 169.986 573.24 176.792V206.968C573.24 213.774 567.773 219.268 561 219.268C554.227 219.268 548.76 213.774 548.76 206.968V165.558C548.76 158.752 543.293 153.258 536.52 153.258C529.747 153.258 524.28 158.752 524.28 165.558V219.268V228.288V300.038H646.68V228.288V219.268V148.666C646.68 141.86 641.213 136.366 634.44 136.366C627.749 136.366 622.2 141.86 622.2 148.666Z" stroke="#3F2522" stroke-width="6" stroke-miterlimit="10" stroke-linecap="round" stroke-linejoin="round"/>
<path d="M646.68 2.45996H524.28V296.184H646.68V2.45996Z" stroke="#3F2522" stroke-width="6" stroke-miterlimit="10" stroke-linecap="round" stroke-linejoin="round"/>
<path d="M583.603 421.808V404.014C583.603 392.124 593.232 382.448 605.064 382.448H668.222C680.054 382.448 689.683 372.772 689.683 360.882V342.268C689.683 330.378 680.054 320.702 668.222 320.702H648.883" stroke="#3F2522" stroke-width="8" stroke-miterlimit="10" stroke-linecap="round" stroke-linejoin="round"/>
<path d="M460.55 313.322L437.539 271.42C436.805 270.026 434.846 270.026 434.112 271.42L411.182 313.24V320.784H460.55V313.322Z" fill="#F1E4E5"/>
<path d="M437.621 271.502C436.886 270.108 434.928 270.108 434.194 271.502L431.664 276.176L453.043 315.126V320.784H460.632V313.322L437.621 271.502Z" fill="#DDD4D5"/>
<path d="M460.55 313.322L437.539 271.42C436.805 270.026 434.846 270.026 434.112 271.42L411.182 313.24V320.784H460.55V313.322Z" stroke="#3F2522" stroke-width="6" stroke-miterlimit="10" stroke-linecap="round" stroke-linejoin="round"/>
<path d="M444.72 284.458L437.621 271.502C436.886 270.108 434.928 270.108 434.194 271.502L427.094 284.458H444.72Z" stroke="#3F2522" stroke-width="6" stroke-miterlimit="10" stroke-linecap="round" stroke-linejoin="round"/>
<path d="M444.72 284.458L437.621 271.502C436.886 270.108 434.928 270.108 434.194 271.502L427.094 284.458H444.72Z" fill="#3F2522"/>
<path d="M238.517 526.604C225.298 526.604 214.118 515.616 213.629 501.594L209.141 385.564H267.893L263.405 501.594C262.915 515.616 251.736 526.604 238.517 526.604Z" fill="#6B352F"/>
<path opacity="0.48" d="M214.2 506.186C220.565 506.186 225.706 500.856 225.379 494.46L221.299 397.29C221.054 390.73 215.669 385.564 209.141 385.564L213.629 501.594C213.71 503.152 213.874 504.71 214.2 506.186Z" fill="#A35D58"/>
<path d="M267.893 385.564C260.549 385.564 254.51 391.386 254.184 398.766L250.512 495.116C249.941 509.22 238.843 520.126 225.624 520.126C224.4 520.126 223.094 520.044 221.87 519.798C226.277 523.98 232.152 526.522 238.517 526.522C251.736 526.522 262.915 515.534 263.405 501.512L267.893 385.564Z" fill="#602C29"/>
<g opacity="0.2">
<path opacity="0.2" d="M242.434 438.454L242.189 439.192C239.986 444.768 234.192 459.61 242.678 470.27C247.656 476.502 254.837 477.404 261.773 478.224C262.67 478.306 263.486 478.47 264.384 478.552L264.547 473.632C263.813 473.55 263.078 473.468 262.344 473.386C255.816 472.566 250.267 471.91 246.514 467.236C239.741 458.79 244.637 446.326 246.758 441.078L247.003 440.422C247.982 438.044 255.082 424.76 266.832 414.51L267.077 407.95C252.552 418.938 243.821 435.01 242.434 438.454Z" fill="#DD795B"/>
<path opacity="0.2" d="M232.07 488.228C230.928 488.228 229.704 488.31 228.562 488.474C222.278 489.376 217.382 492.656 213.466 496.92L213.629 501.594C213.629 502.496 213.71 503.316 213.874 504.218C217.627 498.806 222.523 494.296 229.214 493.394C237.456 492.246 245.616 495.198 260.304 513.238C261.202 511.598 261.854 509.876 262.426 508.072C252.226 495.772 243.005 488.228 232.07 488.228Z" fill="#DD795B"/>
<path opacity="0.2" d="M224.318 432.796C232.723 422.136 239.333 413.69 235.906 404.26C232.315 394.338 220.157 390.402 209.222 387.614L209.386 392.78C218.77 395.24 228.643 398.766 231.254 405.982C233.702 412.87 228.154 419.922 220.402 429.762C217.546 433.37 214.445 437.388 211.262 441.898L211.589 450.262C215.832 443.538 220.32 437.88 224.318 432.796Z" fill="#DD795B"/>
<path opacity="0.2" d="M250.267 392.042C251.899 391.304 252.552 390.238 252.797 389.418C253.205 388.106 252.878 386.794 252.307 385.564H246.677C246.84 385.81 246.922 385.974 247.003 386.138C247.248 386.63 247.656 387.204 247.819 387.696C246.677 387.86 245.29 386.958 243.821 385.564H237.048C241.291 390.32 245.453 394.256 250.267 392.042Z" fill="#DD795B"/>
<path opacity="0.2" d="M224.4 406.884C223.747 402.21 219.667 399.504 219.259 399.258C216.648 397.536 213.302 396.88 209.63 397.29L209.794 402.21C212.486 401.882 214.771 402.21 216.566 403.358C217.301 403.85 219.178 405.408 219.504 407.54C219.912 410.574 216.566 413.772 213.302 416.888C212.405 417.708 211.426 418.692 210.446 419.676L210.691 426.318C212.976 424.104 214.934 422.136 216.648 420.496C220.646 416.724 225.134 412.378 224.4 406.884Z" fill="#DD795B"/>
<path opacity="0.2" d="M249.696 396.552C243.168 396.552 238.027 390.976 233.784 385.564H227.664C227.746 385.728 227.909 385.892 227.99 386.056C232.968 392.616 239.741 401.472 249.696 401.472C257.774 401.472 261.691 393.108 264.466 387.04C264.71 386.548 264.874 386.056 265.118 385.564H259.733C257.448 390.648 254.51 396.552 249.696 396.552Z" fill="#DD795B"/>
<path opacity="0.2" d="M234.192 474.616C230.683 469.286 229.541 461.414 230.765 451.082C232.315 438.454 241.618 425.006 246.432 419.594C255.326 409.672 263.894 402.456 267.403 399.586L267.648 393.026C267.077 393.518 266.587 393.928 266.098 394.338C265.608 394.666 254.674 403.03 242.842 416.232C237.701 421.972 227.664 436.568 226.032 450.344C224.645 461.824 226.114 470.844 230.275 477.158C235.661 485.44 246.922 489.868 260.549 489.868C261.691 489.868 262.834 489.868 263.976 489.786L264.139 484.866C250.349 485.932 239.17 482.324 234.192 474.616Z" fill="#DD795B"/>
<path opacity="0.2" d="M252.634 446.572V446.736C251.246 457.232 254.347 461.906 257.122 463.874C258.998 465.268 261.283 465.842 263.813 465.842C264.139 465.842 264.466 465.842 264.792 465.842L264.955 460.922C262.997 461.086 261.283 460.84 259.978 459.938C258.59 458.954 256.306 455.92 257.448 447.392V447.31C258.427 440.832 262.018 434.682 266.098 430.254L266.342 423.284C260.141 428.286 254.021 436.978 252.634 446.572Z" fill="#DD795B"/>
<path opacity="0.2" d="M215.342 457.56C215.506 457.56 215.995 457.642 216.566 458.626C218.117 461.086 219.014 472.566 214.608 482.242C214.118 483.308 213.547 484.374 212.976 485.276L213.302 492.656C215.506 490.442 217.627 487.654 219.178 484.21C222.85 476.092 224.4 461.66 220.81 456.002C219.259 453.542 217.301 452.804 215.995 452.64C214.526 452.476 213.058 452.886 211.834 453.46L212.078 459.2C213.058 458.216 214.445 457.396 215.342 457.56Z" fill="#DD795B"/>
<path opacity="0.2" d="M248.309 506.186C246.514 504.71 241.862 500.938 235.008 500.61C234.763 500.61 229.051 500.446 223.666 503.644C220.565 505.53 218.035 508.4 216.077 511.844C216.893 513.648 217.954 515.288 219.096 516.846C220.646 512.992 223.013 509.712 226.114 507.826C230.194 505.366 234.763 505.448 234.763 505.448C239.904 505.694 243.576 508.646 245.208 509.876C245.208 509.876 248.064 512.172 250.757 516.682C251.654 518.24 252.47 519.798 253.123 521.438C254.51 520.372 255.816 519.224 256.958 517.83C253.368 510.286 248.635 506.432 248.309 506.186Z" fill="#DD795B"/>
<path opacity="0.2" d="M242.189 513.976C238.435 512.91 233.294 513.32 230.357 516.928C228.725 518.978 227.99 521.602 228.235 524.308C229.949 525.128 231.744 525.702 233.539 526.112C232.723 523.734 233.05 521.438 234.11 520.044C235.742 518.076 239.006 518.158 240.72 518.732C243.413 519.552 245.534 521.93 246.758 525.128C248.309 524.554 249.778 523.816 251.165 522.996C249.451 518.568 246.269 515.206 242.189 513.976Z" fill="#DD795B"/>
</g>
<path d="M267.893 385.564C248.309 385.564 228.725 385.564 209.141 385.564C209.712 363.178 214.363 346.286 220.81 334.97C232.56 334.97 244.392 334.97 256.142 334.97C262.67 346.286 267.322 363.096 267.893 385.564Z" fill="#BDCED9"/>
<path opacity="0.26" d="M220.891 334.97C214.445 346.286 209.794 363.096 209.222 385.564C215.098 385.564 220.075 381.054 220.565 375.15C222.115 357.848 226.277 344.482 231.662 335.052H220.891V334.97Z" fill="white"/>
<path d="M257.693 347.844H232.478C225.542 347.844 219.912 342.186 219.912 335.216V334.97H257.693V347.844V347.844Z" fill="#ACC1CC"/>
<path d="M256.224 334.97C251.573 334.97 246.922 334.97 242.27 334.97C248.717 346.286 253.368 363.096 253.939 385.564C258.59 385.564 263.242 385.564 267.893 385.564C267.322 363.096 262.67 346.286 256.224 334.97Z" fill="#ACC1CC"/>
<path d="M267.893 385.564C248.309 385.564 228.725 385.564 209.141 385.564C209.712 363.178 214.363 346.286 220.81 334.97C232.56 334.97 244.392 334.97 256.142 334.97C262.67 346.286 267.322 363.096 267.893 385.564Z" stroke="#3F2522" stroke-width="6" stroke-miterlimit="10" stroke-linecap="round" stroke-linejoin="round"/>
<path d="M254.837 334.97H222.197C216.811 334.97 212.405 330.542 212.405 325.13C212.405 319.718 216.811 315.29 222.197 315.29H254.837C260.222 315.29 264.629 319.718 264.629 325.13C264.629 330.542 260.304 334.97 254.837 334.97Z" fill="#BDCED9"/>
<path opacity="0.26" d="M217.301 331.69C220.05 331.69 222.278 328.753 222.278 325.13C222.278 321.507 220.05 318.57 217.301 318.57C214.552 318.57 212.323 321.507 212.323 325.13C212.323 328.753 214.552 331.69 217.301 331.69Z" fill="white"/>
<path d="M254.837 315.29H235.09C240.475 315.29 244.882 319.718 244.882 325.13C244.882 330.542 240.475 334.97 235.09 334.97H254.837C260.222 334.97 264.629 330.542 264.629 325.13C264.629 319.718 260.304 315.29 254.837 315.29Z" fill="#ACC1CC"/>
<path d="M254.837 334.97H222.197C216.811 334.97 212.405 330.542 212.405 325.13C212.405 319.718 216.811 315.29 222.197 315.29H254.837C260.222 315.29 264.629 319.718 264.629 325.13C264.629 330.542 260.304 334.97 254.837 334.97Z" stroke="#3F2522" stroke-width="6" stroke-miterlimit="10" stroke-linecap="round" stroke-linejoin="round"/>
<path d="M256.469 258.71C260.304 264.04 266.506 269.37 267.811 279.046C268.301 282.818 268.138 286.836 267.24 290.854C264.221 303.4 250.104 316.684 233.458 315.044C216.403 313.404 202.694 296.676 204.898 277.488C205.469 271.994 207.754 256.332 220.157 242.31C227.746 233.7 236.314 228.944 242.434 226.402C244.963 225.336 247.738 227.14 247.819 229.928C248.227 244.278 252.389 253.134 256.469 258.71Z" fill="#3F2522"/>
<path d="M256.469 258.71C260.304 264.04 266.506 269.37 267.811 279.046C268.301 282.818 268.138 286.836 267.24 290.854C264.221 303.4 250.104 316.684 233.458 315.044C216.403 313.404 202.694 296.676 204.898 277.488C205.469 271.994 207.754 256.332 220.157 242.31C227.746 233.7 236.314 228.944 242.434 226.402C244.963 225.336 247.738 227.14 247.819 229.928C248.227 244.278 252.389 253.134 256.469 258.71Z" stroke="#3F2522" stroke-width="6" stroke-miterlimit="10" stroke-linecap="round" stroke-linejoin="round"/>
<path opacity="0.76" d="M261.038 277.652C261.038 277.488 261.038 277.406 261.038 277.242C261.038 277.078 261.12 276.832 261.12 276.668C261.202 276.258 261.202 275.766 261.283 275.356C261.283 275.192 261.365 275.028 261.365 274.864C261.773 272.65 262.344 265.926 263.242 263.876C261.773 263.63 260.467 267.402 259.57 266.254C258.427 264.86 257.366 263.63 256.469 262.318C252.389 256.742 248.227 247.886 247.819 233.454C247.738 230.666 244.963 228.862 242.434 229.928C236.314 232.47 227.746 237.226 220.157 245.836C213.874 252.888 206.693 256.086 204.653 265.844C204.979 265.926 212.078 271.83 212.078 276.34V288.722C212.078 294.298 216.485 299.136 222.034 299.218C227.746 299.3 232.397 294.708 232.397 289.05V267.73C232.397 264.614 234.763 261.908 237.864 261.826C241.046 261.744 243.739 264.286 243.739 267.484V277.242C243.739 282.9 247.656 287.41 252.47 287.41C256.877 287.41 260.549 283.556 261.12 278.636C260.957 278.308 261.038 277.98 261.038 277.652Z" fill="#301B19"/>
<path d="M238.517 526.604C225.298 526.604 214.118 515.616 213.629 501.594L209.141 385.564H267.893L263.405 501.594C262.915 515.616 251.736 526.604 238.517 526.604Z" stroke="#3F2522" stroke-width="6" stroke-miterlimit="10" stroke-linecap="round" stroke-linejoin="round"/>
<path d="M342.72 520.782C328.277 520.782 316.608 509.056 316.608 494.542V366.622H368.832V494.542C368.832 509.056 357.163 520.782 342.72 520.782Z" fill="#38BEB3"/>
<path opacity="0.23" d="M318.24 504.546V371.214C323.626 371.214 328.032 375.642 328.032 381.054V494.788C328.032 500.2 323.626 504.546 318.24 504.546Z" fill="white"/>
<path opacity="0.32" d="M356.592 366.622V488.146C356.592 502.66 344.923 514.386 330.48 514.386C328.603 514.386 326.808 514.222 325.013 513.812C329.664 518.158 335.866 520.782 342.72 520.782C357.163 520.782 368.832 509.056 368.832 494.542V366.622H356.592Z" fill="#026060"/>
<path d="M342.72 520.782C328.277 520.782 316.608 509.056 316.608 494.542V366.622H368.832V494.542C368.832 509.056 357.163 520.782 342.72 520.782Z" stroke="#3F2522" stroke-width="6" stroke-miterlimit="10" stroke-linecap="round" stroke-linejoin="round"/>
<path d="M355.776 309.222V284.95H329.664V309.222C329.664 316.438 323.789 322.342 316.608 322.342V366.622H368.832V322.342C361.651 322.342 355.776 316.438 355.776 309.222Z" fill="#9BC7BC"/>
<path opacity="0.26" d="M319.056 363.834H318.485V325.13C323.626 325.13 327.706 329.312 327.706 334.396V355.06C327.787 359.898 323.87 363.834 319.056 363.834Z" fill="white"/>
<path opacity="0.47" d="M355.776 309.222V284.95C349.493 284.95 344.352 290.116 344.352 296.43V309.222C344.352 318.652 349.656 326.852 357.408 330.952V355.142C357.408 361.456 362.549 366.622 368.832 366.622V322.342C361.651 322.342 355.776 316.438 355.776 309.222Z" fill="#72A596"/>
<path d="M355.776 309.222V284.95H329.664V309.796C329.664 316.766 324.034 322.342 317.179 322.342H316.608V366.622H368.832V322.342C361.651 322.342 355.776 316.438 355.776 309.222Z" stroke="#3F2522" stroke-width="6" stroke-miterlimit="10" stroke-linecap="round" stroke-linejoin="round"/>
<path d="M332.928 248.378V285.032H352.512V257.48C345.902 256.004 340.109 252.396 335.947 247.312C334.968 246 332.928 246.738 332.928 248.378Z" fill="#94AF4A"/>
<path d="M332.928 249.034V284.95H352.512V257.398C346.147 256.004 340.517 252.478 336.355 247.722C335.213 246.328 332.928 247.148 332.928 249.034Z" stroke="#3F2522" stroke-width="6" stroke-miterlimit="10" stroke-linecap="round" stroke-linejoin="round"/>
<path d="M450.595 521.684H421.219C415.834 521.684 411.427 517.256 411.427 511.844V499.134H460.387V511.844C460.387 517.256 455.981 521.684 450.595 521.684Z" fill="#EC2731"/>
<path d="M452.88 507.416V511.27C452.88 513.648 450.922 515.616 448.555 515.616H427.666C424.32 515.616 421.546 518.322 421.546 521.766H450.514C455.899 521.766 460.306 517.338 460.306 511.926V500.2H459.979C456.062 500.2 452.88 503.398 452.88 507.416Z" fill="#D3112E"/>
<path opacity="0.51" d="M417.058 517.256C415.262 517.256 413.875 515.78 413.875 514.058V501.512H417.058C418.853 501.512 420.24 502.988 420.24 504.71C420.24 507.416 420.24 511.352 420.24 514.058C420.24 515.78 418.771 517.256 417.058 517.256Z" fill="#FFA4AD"/>
<path d="M450.595 521.684H421.219C415.834 521.684 411.427 517.256 411.427 511.844V499.134H460.387V511.844C460.387 517.256 455.981 521.684 450.595 521.684Z" stroke="#3F2522" stroke-width="6" stroke-miterlimit="10" stroke-linecap="round" stroke-linejoin="round"/>
<path d="M462.019 499.134H445.699V317.914C445.699 313.404 449.371 309.714 453.859 309.714C458.347 309.714 462.019 313.404 462.019 317.914V499.134Z" fill="#48633B"/>
<path d="M462.019 499.134H445.699V317.914C445.699 313.404 449.371 309.714 453.859 309.714C458.347 309.714 462.019 313.404 462.019 317.914V499.134Z" stroke="#3F2522" stroke-width="6" stroke-miterlimit="10" stroke-linecap="round" stroke-linejoin="round"/>
<path d="M426.115 499.134H409.795V317.914C409.795 313.404 413.467 309.714 417.955 309.714C422.443 309.714 426.115 313.404 426.115 317.914V499.134Z" fill="#94AF4A"/>
<path d="M413.63 495.444C411.754 495.444 410.203 493.886 410.203 492V316.93C410.203 315.044 411.754 313.486 413.63 313.486C415.507 313.486 417.058 315.044 417.058 316.93V492C417.058 493.886 415.507 495.444 413.63 495.444Z" fill="#BFBC47"/>
<path d="M426.115 499.134H409.795V317.914C409.795 313.404 413.467 309.714 417.955 309.714C422.443 309.714 426.115 313.404 426.115 317.914V499.134Z" stroke="#3F2522" stroke-width="6" stroke-miterlimit="10" stroke-linecap="round" stroke-linejoin="round"/>
<path d="M445.699 499.134H426.115V319.554C426.115 314.142 430.522 309.714 435.907 309.714C441.293 309.714 445.699 314.142 445.699 319.554V499.134Z" fill="#4D9358"/>
<path d="M445.699 499.134H426.115V319.554C426.115 314.142 430.522 309.714 435.907 309.714C441.293 309.714 445.699 314.142 445.699 319.554V499.134Z" stroke="#3F2522" stroke-width="6" stroke-miterlimit="10" stroke-linecap="round" stroke-linejoin="round"/>
<path d="M643.253 353.584H527.054C518.323 353.584 511.306 346.45 511.306 337.758V303.892C511.306 295.118 518.405 288.066 527.054 288.066H643.171C651.902 288.066 658.92 295.2 658.92 303.892V337.758C659.002 346.45 651.902 353.584 643.253 353.584Z" fill="#38BEB3"/>
<path opacity="0.23" d="M517.997 341.12C515.386 341.12 513.264 338.988 513.264 336.364V305.204C513.264 302.58 515.386 300.448 517.997 300.448C520.608 300.448 522.73 302.58 522.73 305.204V336.364C522.811 338.988 520.69 341.12 517.997 341.12Z" fill="white"/>
<path opacity="0.05" d="M637.133 338.168H533.093C530.318 338.168 528.034 335.872 528.034 333.084C528.034 330.296 530.318 328 533.093 328H637.133C639.907 328 642.192 330.296 642.192 333.084C642.192 335.872 639.907 338.168 637.133 338.168Z" fill="#026060"/>
<path opacity="0.05" d="M639.662 323.326H530.645C529.258 323.326 528.115 322.178 528.115 320.784C528.115 319.39 529.258 318.242 530.645 318.242H639.744C641.131 318.242 642.274 319.39 642.274 320.784C642.192 322.26 641.05 323.326 639.662 323.326Z" fill="#026060"/>
<path opacity="0.14" d="M643.253 287.984H642.355C643.416 290.116 644.069 292.494 644.069 295.118V332.92C644.069 339.48 638.765 344.892 632.155 344.892H531.461C526.646 344.892 522.729 348.828 522.729 353.666H643.171C651.902 353.666 658.92 346.532 658.92 337.84V303.974C659.001 295.036 651.902 287.984 643.253 287.984Z" fill="#026060"/>
<path opacity="0.15" d="M649.21 298.48H521.098C518.731 298.48 516.854 296.594 516.854 294.216C516.854 291.838 518.731 289.952 521.098 289.952H649.21C651.576 289.952 653.453 291.838 653.453 294.216C653.453 296.594 651.576 298.48 649.21 298.48Z" fill="#92D3D1"/>
<path d="M643.253 353.584H527.054C518.323 353.584 511.306 346.45 511.306 337.758V303.892C511.306 295.118 518.405 288.066 527.054 288.066H643.171C651.902 288.066 658.92 295.2 658.92 303.892V337.758C659.002 346.45 651.902 353.584 643.253 353.584Z" stroke="#3F2522" stroke-width="6" stroke-miterlimit="10" stroke-linecap="round" stroke-linejoin="round"/>
<path d="M583.603 516.846C574.056 516.846 566.222 509.056 566.222 499.38V443.292C566.222 433.698 573.974 425.826 583.603 425.826C593.15 425.826 600.984 433.616 600.984 443.292V499.38C600.902 509.056 593.15 516.846 583.603 516.846Z" fill="#AB5647"/>
<path opacity="0.21" d="M571.853 506.35C569.405 506.35 567.446 504.382 567.446 501.922V439.028C567.446 436.568 569.405 434.6 571.853 434.6C574.301 434.6 576.259 436.568 576.259 439.028V501.922C576.259 504.382 574.301 506.35 571.853 506.35Z" fill="#FFBBA6"/>
<path d="M588.01 426.482C590.458 429.516 592.008 433.37 592.008 437.552V493.64C592.008 503.234 584.256 511.106 574.627 511.106C573.077 511.106 571.608 510.86 570.221 510.532C573.403 514.386 578.218 516.846 583.603 516.846C593.15 516.846 600.984 509.056 600.984 499.38V443.292C600.902 435.256 595.435 428.45 588.01 426.482Z" fill="#9B4F45"/>
<path d="M583.603 516.846C574.056 516.846 566.222 509.056 566.222 499.38V443.292C566.222 433.698 573.974 425.826 583.603 425.826C593.15 425.826 600.984 433.616 600.984 443.292V499.38C600.902 509.056 593.15 516.846 583.603 516.846Z" stroke="#3F2522" stroke-width="6" stroke-miterlimit="10" stroke-linecap="round" stroke-linejoin="round"/>
<path d="M593.477 430.008H573.648C569.568 430.008 566.222 426.646 566.222 422.546C566.222 418.446 569.568 415.084 573.648 415.084H593.477C597.557 415.084 600.902 418.446 600.902 422.546C600.902 426.646 597.557 430.008 593.477 430.008Z" fill="#9B4F45"/>
<path opacity="0.21" d="M571.282 427.548C574.076 427.548 576.341 425.272 576.341 422.464C576.341 419.656 574.076 417.38 571.282 417.38C568.487 417.38 566.222 419.656 566.222 422.464C566.222 425.272 568.487 427.548 571.282 427.548Z" fill="#FFBBA6"/>
<path d="M593.477 415.002H581.808C585.888 415.002 589.234 418.364 589.234 422.464C589.234 426.564 585.888 429.926 581.808 429.926H593.477C597.557 429.926 600.902 426.564 600.902 422.464C600.902 418.364 597.557 415.002 593.477 415.002Z" fill="#8C443E"/>
<path d="M593.477 430.008H573.648C569.568 430.008 566.222 426.646 566.222 422.546C566.222 418.446 569.568 415.084 573.648 415.084H593.477C597.557 415.084 600.902 418.446 600.902 422.546C600.902 426.646 597.557 430.008 593.477 430.008Z" stroke="#3F2522" stroke-width="6" stroke-miterlimit="10" stroke-linecap="round" stroke-linejoin="round"/>
<path d="M511.306 333.084H510.326C507.226 333.084 504.778 330.542 504.778 327.508V314.06C504.778 310.944 507.307 308.484 510.326 308.484H511.306V333.084Z" stroke="#3F2522" stroke-width="6" stroke-miterlimit="10" stroke-linecap="round" stroke-linejoin="round"/>
<path d="M511.306 333.084H510.326C507.226 333.084 504.778 330.542 504.778 327.508V314.06C504.778 310.944 507.307 308.484 510.326 308.484H511.306V333.084Z" fill="#3F2522"/>
<path d="M659.002 333.084H659.981C663.082 333.084 665.53 330.542 665.53 327.508V314.06C665.53 310.944 663 308.484 659.981 308.484H659.002V333.084Z" stroke="#3F2522" stroke-width="6" stroke-miterlimit="10" stroke-linecap="round" stroke-linejoin="round"/>
<path d="M659.002 333.084H659.981C663.082 333.084 665.53 330.542 665.53 327.508V314.06C665.53 310.944 663 308.484 659.981 308.484H659.002V333.084Z" fill="#3F2522"/>
<path d="M261.038 264.45C259.406 262.4 257.774 260.514 256.469 258.628C252.389 253.052 248.227 244.278 247.819 229.764C247.738 226.976 244.963 225.172 242.352 226.238C236.232 228.78 227.664 233.536 220.075 242.146C213.792 249.198 210.12 256.66 207.917 262.974" stroke="#EC2731" stroke-width="6" stroke-miterlimit="10" stroke-linecap="round" stroke-linejoin="round"/>
<path d="M261.038 273.962C261.038 273.798 261.038 273.716 261.038 273.552C261.038 273.388 261.12 273.142 261.12 272.978C261.202 272.568 261.202 272.076 261.283 271.666C261.283 271.502 261.365 271.338 261.365 271.174C261.773 268.96 262.344 266.746 263.242 264.696C261.773 264.45 260.467 263.712 259.57 262.564C258.427 261.17 257.366 259.94 256.469 258.628C252.389 253.052 248.227 244.196 247.819 229.764C247.738 226.976 244.963 225.172 242.434 226.238C236.314 228.78 227.746 233.536 220.157 242.146C213.874 249.198 209.386 258.956 207.182 265.352C207.509 265.434 211.997 268.14 211.997 272.65V285.032C211.997 290.608 216.403 295.446 221.952 295.528C227.664 295.61 232.315 291.018 232.315 285.36V264.04C232.315 260.924 234.682 258.218 237.782 258.136C240.965 258.054 243.658 260.596 243.658 263.794V273.552C243.658 279.21 247.574 283.72 252.389 283.72C256.795 283.72 260.467 279.866 261.038 274.946C260.957 274.7 261.038 274.372 261.038 273.962Z" fill="#EC2731"/>
<path opacity="0.4" d="M332.928 474.616V487.654" stroke="white" stroke-width="6" stroke-miterlimit="10" stroke-linecap="round" stroke-linejoin="round"/>
<path opacity="0.4" d="M332.928 379.168V463.464" stroke="white" stroke-width="6" stroke-miterlimit="10" stroke-linecap="round" stroke-linejoin="round"/>
<path d="M585.643 145.796L576.83 132.676C572.179 125.788 576.504 116.112 584.827 115.538C585.072 115.538 585.398 115.538 585.643 115.538C585.888 115.538 586.214 115.538 586.459 115.538C594.701 116.112 599.026 125.706 594.456 132.676L585.643 145.796Z" fill="#CC253D"/>
<path d="M585.643 151.536L576.83 138.416C572.179 131.528 576.504 121.852 584.827 121.278C585.072 121.278 585.398 121.278 585.643 121.278C585.888 121.278 586.214 121.278 586.459 121.278C594.701 121.852 599.026 131.446 594.456 138.416L585.643 151.536Z" fill="#38BEB3"/>
<path d="M585.643 151.536L576.83 138.416C572.179 131.528 576.504 121.852 584.827 121.278C585.072 121.278 585.398 121.278 585.643 121.278C585.888 121.278 586.214 121.278 586.459 121.278C594.701 121.852 599.026 131.446 594.456 138.416L585.643 151.536Z" stroke="#3F2522" stroke-width="6" stroke-miterlimit="10" stroke-linecap="round" stroke-linejoin="round"/>
<path opacity="0.4" d="M532.603 304.22H600.902" stroke="white" stroke-width="6" stroke-miterlimit="10" stroke-linecap="round" stroke-linejoin="round"/>
<path opacity="0.4" d="M614.856 304.22H624.648" stroke="white" stroke-width="6" stroke-miterlimit="10" stroke-linecap="round" stroke-linejoin="round"/>
<path d="M583.603 502.742C586.623 502.742 589.07 500.282 589.07 497.248C589.07 494.214 586.623 491.754 583.603 491.754C580.584 491.754 578.136 494.214 578.136 497.248C578.136 500.282 580.584 502.742 583.603 502.742Z" fill="#3E454F"/>
<path d="M583.603 502.742C586.623 502.742 589.07 500.282 589.07 497.248C589.07 494.214 586.623 491.754 583.603 491.754C580.584 491.754 578.136 494.214 578.136 497.248C578.136 500.282 580.584 502.742 583.603 502.742Z" stroke="#3F2522" stroke-width="6" stroke-miterlimit="10" stroke-linecap="round" stroke-linejoin="round"/>
</g>
<defs>
<clipPath id="clip0_421_345">
<rect width="816" height="820" fill="white"/>
</clipPath>
</defs>
</svg>
